<?xml version="1.0" encoding="utf-8"?>
<!-- Generator: Adobe Illustrator 22.1.0, SVG Export Plug-In . SVG Version: 6.00 Build 0)  -->
<svg version="1.1" id="Capa_2_1_" xmlns="http://www.w3.org/2000/svg" xmlns:xlink="http://www.w3.org/1999/xlink" x="0px" y="0px"
	 viewBox="0 0 200 200" style="enable-background:new 0 0 200 200;" xml:space="preserve">
<style type="text/css">
	.st0{fill:#686868;}
</style>
<title>menaje-sodiac-mexico_Mesa de trabajo</title>
<g>
	<path class="st0" d="M131.4,47.4l-12.1,12.2v92.9h18.9v34.9l12.2,12.6h16.4V47.4H131.4z M157.2,190.4h-2.8l-6.7-7v-31h9.5
		L157.2,190.4z M128.8,142.9V63.5l6.5-6.6h21.9v86H128.8z"/>
	<path class="st0" d="M85.4,83.2c0,10-7,18.6-16.7,20.8V47.6h-9.5v56.4c-9.6-2.3-16.3-10.9-16.3-20.7V47.7h-9.5v35.5
		c0,15.1,11,28,25.9,30.4V200h9.5v-86.3c15.1-2.3,26.2-15.2,26.3-30.5V47.7h-9.5V83.2z"/>
</g>
</svg>
